<?xml version="1.0" encoding="UTF-8"?>
<svg width="408px" height="408px" viewBox="0 0 408 408" xmlns="http://www.w3.org/2000/svg" xmlns:xlink="http://www.w3.org/1999/xlink" version="1.1">
 <!-- Generated by Pixelmator Pro 2.0.8 -->
 <g id="group">
  <g id="group-1">
   <path id="Path" d="M80 118.5 C87.1 124.2 94.7 128.7 102.7 131.8 L79.5 273.8 C79.4 274.3 79.4 274.8 79.4 275.2 79.4 286.9 83.6 298.2 91.2 307.1 97 313.9 104.6 319 113.1 321.8 L113.1 350.7 C113.1 371.6 130.1 388.6 151 388.6 171.9 388.6 188.9 371.6 188.9 350.7 L188.9 324.3 217.7 324.3 217.7 350.7 C217.7 371.6 234.7 388.6 255.6 388.6 276.5 388.6 293.5 371.6 293.5 350.7 L293.5 321.8 C301.9 319 309.6 313.9 315.4 307.1 323 298.2 327.2 286.9 327.2 275.2 327.2 274.7 327.2 274.2 327.1 273.8 L303.6 129.8 C309.9 126.9 315.9 123.1 321.6 118.5 331.1 110.8 333.8 99.3 329.1 86 325.2 74.8 316.9 64.9 312.4 59.9 300 46.4 294.6 46.4 292.8 46.4 289.3 46.4 286.1 48.3 284.5 51.3 281.6 56.8 285.2 62.2 287 64.8 291.5 71.5 293.2 77 291.7 80.4 291.3 81.4 290.6 82.2 289.8 83 284 72.7 276.6 63.7 267.6 56 249.7 40.8 226.9 32.4 203.4 32.4 179.9 32.4 157.1 40.8 139.2 56 129.6 64.2 121.5 74.3 115.6 85.5 112.8 84 110.9 82.3 110.1 80.4 108.6 77 110.3 71.5 114.8 64.8 116.6 62.2 120.2 56.9 117.3 51.3 115.7 48.3 112.5 46.4 109 46.4 107.2 46.4 101.8 46.4 89.4 59.9 84.8 64.9 76.6 74.8 72.7 86 67.8 99.3 70.5 110.9 80 118.5 Z" fill="#2b2b2b" fill-opacity="1" stroke="none"/>
   <g id="group-2">
    <path id="Path-1" d="M111.2 116.6 C112.2 110.4 113.8 104.4 116.1 98.6 110.2 96.6 102.6 92.7 99.3 85.4 96.6 79.5 97.3 72.5 101.3 64.6 99.6 66.2 97.7 68.2 95.8 70.5 91.7 75.3 84.5 84.8 82.6 94.2 81.3 100.8 82.9 105.8 87.5 109.5 95.6 116 103.4 119.9 110.4 122.1 Z" fill="#fed800" fill-opacity="1" stroke="none"/>
    <path id="Path-2" d="M295.9 120.3 C301.6 117.9 307.8 114.5 314.1 109.4 318.7 105.7 320.4 100.7 319 94.1 317.1 84.8 309.9 75.3 305.8 70.4 303.8 68.1 302 66.1 300.3 64.5 304.3 72.4 304.9 79.3 302.3 85.3 299.8 90.9 294.7 94.5 289.8 96.8 292.3 103.1 294.2 109.7 295.3 116.6 Z" fill="#fed800" fill-opacity="1" stroke="none"/>
    <path id="Path-3" d="M296.9 126.2 C303.4 123.6 310.5 119.8 317.8 113.9 325.3 107.8 327.3 98.9 323.5 87.9 319.9 77.7 312.3 68.4 308 63.8 306.2 61.9 297.2 52.2 292.8 52.2 291.5 52.2 290.3 52.9 289.7 54 288.6 56 289.7 58.3 291.8 61.4 297.7 70.1 299.4 77.2 297 82.7 295.2 86.7 291.3 89.5 287.5 91.3 281.9 79.5 273.8 69 263.7 60.4 246.8 46.1 225.4 38.2 203.3 38.2 181.2 38.2 159.7 46.1 142.9 60.4 132.4 69.4 124 80.5 118.4 93 113.5 91.4 107.1 88.3 104.7 82.8 102.3 77.3 104 70.2 109.9 61.5 112 58.4 113.1 56.1 112 54.1 111.4 53 110.3 52.3 108.9 52.3 104.5 52.3 95.4 61.9 93.7 63.9 89.5 68.5 81.8 77.8 78.2 88 74.4 98.9 76.3 107.9 83.9 114 92.9 121.3 101.8 125.5 109.5 127.9 L85.5 274.8 85.5 275.3 C85.5 285.6 89.2 295.6 95.9 303.4 102 310.5 110.2 315.4 119.2 317.4 L119.2 350.8 C119.2 368.5 133.6 382.8 151.2 382.8 168.9 382.8 183.2 368.4 183.2 350.8 L183.2 318.5 223.8 318.5 223.8 350.8 C223.8 368.5 238.2 382.8 255.8 382.8 273.5 382.8 287.8 368.4 287.8 350.8 L287.8 317.4 C296.8 315.4 305 310.5 311.1 303.4 317.8 295.6 321.5 285.6 321.5 275.3 321.5 275.1 321.5 275 321.5 274.8 Z M302.3 85.3 C305 79.4 304.3 72.4 300.3 64.5 302 66.1 303.9 68.1 305.8 70.4 309.9 75.2 317.1 84.7 319 94.1 320.3 100.7 318.7 105.7 314.1 109.4 307.8 114.5 301.6 117.9 295.9 120.3 L295.3 116.6 C294.2 109.8 292.3 103.2 289.8 96.8 294.7 94.5 299.8 90.9 302.3 85.3 Z M87.4 109.4 C82.8 105.7 81.1 100.7 82.5 94.1 84.4 84.8 91.6 75.3 95.7 70.4 97.7 68.1 99.5 66.1 101.2 64.5 97.2 72.4 96.6 79.3 99.2 85.3 102.5 92.6 110.1 96.5 116 98.5 113.8 104.3 112.2 110.3 111.1 116.5 L110.2 121.9 C103.3 119.7 95.5 115.9 87.4 109.4 Z M284.2 312 C282.8 312.2 281.7 313.5 281.7 314.9 L281.7 338.9 281.7 350.7 C281.7 365.1 270 376.9 255.5 376.9 241.1 376.9 229.3 365.2 229.3 350.7 L229.3 339 229.3 315.5 C229.3 313.9 228 312.6 226.4 312.6 L180 312.6 C178.4 312.6 177.1 313.9 177.1 315.5 L177.1 339 177.1 350.8 C177.1 365.2 165.4 377 150.9 377 136.5 377 124.7 365.3 124.7 350.8 L124.7 339 124.7 315 C124.7 313.6 123.7 312.3 122.2 312.1 104.2 309.2 91.1 293.8 91 275.6 L116.8 117.6 C123.7 75.1 160 44.3 203.1 44.3 246.2 44.3 282.4 75.1 289.4 117.6 L314.5 271 315.2 275.5 C315.2 293.7 302.2 309.1 284.2 312 Z" fill="#2b2b2b" fill-opacity="1" stroke="none"/>
    <path id="Path-4" d="M203.7 163.6 C165 163.6 133.6 141.3 132.8 113.5 L132.8 114.3 C132.8 144.7 164.6 169.3 203.7 169.3 242.9 169.3 274.6 144.7 274.6 114.3 274.6 114 274.6 113.8 274.6 113.5 273.7 141.3 242.3 163.6 203.7 163.6 Z" fill="#cfcfcf" fill-opacity="1" stroke="none"/>
    <path id="Path-5" d="M253.6 123.8 C253 124.5 252.2 125 251.2 125 251 125 250.9 125 250.7 125 249.6 124.8 248.7 124 248.4 123 L241.6 101.2 227.5 122.3 C226.9 123.3 225.7 123.8 224.6 123.6 223.5 123.4 222.5 122.6 222.2 121.5 L214.8 93.2 196.4 123.7 C195.9 124.6 194.9 125.1 193.9 125.1 193.9 125.1 193.9 125.1 193.8 125.1 192.8 125.1 191.8 124.5 191.3 123.6 L174.1 92.5 161.6 123.3 C161.2 124.2 160.4 124.9 159.4 125.1 158.4 125.3 157.4 125 156.7 124.2 L134.6 100.8 C133.4 104.5 132.7 108.5 132.7 112.5 L132.7 113.6 C133.5 141.4 165 163.7 203.6 163.7 242.2 163.7 273.6 141.4 274.5 113.7 274.5 113.3 274.5 112.9 274.5 112.5 274.5 107.9 273.6 103.4 272 99.2 Z M220.4 148.6 C220.4 148.7 220.4 148.7 220.4 148.6 219.8 149 219.2 149.3 218.6 149.6 218.3 149.7 218 149.9 217.7 150 L217.6 150 C217 150.3 216.3 150.5 215.6 150.8 L215.5 150.8 C215.2 150.9 214.9 151 214.6 151.1 214.5 151.1 214.5 151.1 214.4 151.2 213.7 151.4 213 151.6 212.2 151.7 212.1 151.7 212 151.7 211.9 151.7 211.6 151.8 211.3 151.8 211 151.9 210.9 151.9 210.8 151.9 210.7 151.9 210.3 152 209.9 152 209.5 152.1 209.1 152.1 208.7 152.2 208.3 152.2 208.2 152.2 208.1 152.2 208 152.2 207.7 152.2 207.4 152.2 207.1 152.3 207 152.3 206.9 152.3 206.7 152.3 206.3 152.3 205.9 152.3 205.5 152.3 205.1 152.3 204.7 152.3 204.3 152.3 204.2 152.3 204.1 152.3 203.9 152.3 203.6 152.3 203.3 152.3 203 152.2 202.9 152.2 202.8 152.2 202.7 152.2 202.3 152.2 201.9 152.1 201.5 152.1 201.1 152.1 200.7 152 200.3 151.9 200.2 151.9 200.1 151.9 200 151.9 199.7 151.9 199.4 151.8 199.1 151.7 199 151.7 198.9 151.7 198.8 151.7 198 151.6 197.3 151.4 196.6 151.2 196.5 151.2 196.5 151.2 196.4 151.1 196.1 151 195.8 150.9 195.5 150.8 L195.4 150.8 C194.7 150.6 194 150.3 193.4 150 L193.3 150 C193 149.9 192.7 149.7 192.4 149.6 191.8 149.3 191.2 149 190.6 148.6 187.6 146.7 185.7 144.2 185.7 141.4 185.7 135.3 194.6 130.4 205.5 130.4 216.4 130.4 225.3 135.3 225.3 141.4 225.3 144.2 223.4 146.7 220.4 148.6 Z" fill="#8cb0ae" fill-opacity="1" stroke="none"/>
    <path id="Path-6" d="M134.6 100.7 L156.7 124.1 C157.4 124.8 158.4 125.2 159.4 125 160.4 124.8 161.2 124.1 161.6 123.2 L174.1 92.4 191.3 123.5 C191.8 124.4 192.8 125 193.8 125 L193.9 125 C194.9 125 195.9 124.5 196.4 123.6 L214.8 93.1 222.2 121.4 C222.5 122.5 223.4 123.4 224.6 123.5 225.7 123.7 226.9 123.2 227.5 122.2 L241.6 101.1 248.4 122.9 C248.7 124 249.6 124.7 250.7 124.9 L251.2 124.9 C252.1 124.9 253 124.5 253.6 123.7 L272.2 98.9 274.7 95.5 C275.7 94.2 275.4 92.4 274.1 91.4 272.8 90.4 271 90.7 270 92 L252.3 115.6 245.4 93.5 C245.1 92.4 244.1 91.6 243 91.5 241.9 91.3 240.8 91.8 240.1 92.8 L226.2 113.5 218.6 84.8 C218.3 83.7 217.3 82.8 216.2 82.6 215 82.4 213.9 83 213.3 84 L194 116.2 176.3 84.2 C175.8 83.2 174.7 82.6 173.6 82.7 172.5 82.8 171.5 83.5 171.1 84.5 L158 116.7 137.6 95.1 C136.5 93.9 134.6 93.9 133.4 95 132.2 96.1 132.2 98 133.3 99.2 Z" fill="#2b2b2b" fill-opacity="1" stroke="none"/>
    <path id="Path-7" d="M193.3 150.1 C193 150 192.7 149.8 192.4 149.7 192.7 149.8 193 149.9 193.3 150.1 Z" fill="#2b2b2b" fill-opacity="1" stroke="none"/>
    <path id="Path-8" d="M198.9 151.8 C198.1 151.7 197.4 151.5 196.7 151.3 197.4 151.5 198.1 151.6 198.9 151.8 Z" fill="#2b2b2b" fill-opacity="1" stroke="none"/>
    <path id="Path-9" d="M192.3 149.7 C191.7 149.4 191.1 149.1 190.5 148.7 191.1 149 191.7 149.3 192.3 149.7 Z" fill="#2b2b2b" fill-opacity="1" stroke="none"/>
    <path id="Path-10" d="M195.4 150.9 C194.7 150.7 194 150.4 193.4 150.1 194 150.4 194.7 150.7 195.4 150.9 Z" fill="#2b2b2b" fill-opacity="1" stroke="none"/>
    <path id="Path-11" d="M208 152.3 C207.7 152.3 207.4 152.3 207.1 152.4 207.4 152.4 207.7 152.3 208 152.3 Z" fill="#2b2b2b" fill-opacity="1" stroke="none"/>
    <path id="Path-12" d="M209.5 152.2 C209.1 152.2 208.7 152.3 208.3 152.3 208.7 152.3 209.1 152.2 209.5 152.2 Z" fill="#2b2b2b" fill-opacity="1" stroke="none"/>
    <path id="Path-13" d="M211.8 151.8 C211.5 151.9 211.2 151.9 210.9 152 211.2 151.9 211.5 151.9 211.8 151.8 Z" fill="#2b2b2b" fill-opacity="1" stroke="none"/>
    <path id="Path-14" d="M210.6 152 C210.2 152.1 209.8 152.1 209.4 152.2 209.9 152.1 210.3 152.1 210.6 152 Z" fill="#2b2b2b" fill-opacity="1" stroke="none"/>
    <path id="Path-15" d="M214.3 151.3 C213.6 151.5 212.9 151.7 212.1 151.8 212.8 151.6 213.6 151.5 214.3 151.3 Z" fill="#2b2b2b" fill-opacity="1" stroke="none"/>
    <path id="Path-16" d="M217.6 150.1 C217 150.4 216.3 150.6 215.6 150.9 216.2 150.7 216.9 150.4 217.6 150.1 Z" fill="#2b2b2b" fill-opacity="1" stroke="none"/>
    <path id="Path-17" d="M215.4 150.9 C215.1 151 214.8 151.1 214.5 151.2 214.8 151.1 215.1 151 215.4 150.9 Z" fill="#2b2b2b" fill-opacity="1" stroke="none"/>
    <path id="Path-18" d="M203.9 152.4 C203.6 152.4 203.3 152.4 203 152.3 203.3 152.3 203.6 152.4 203.9 152.4 Z" fill="#2b2b2b" fill-opacity="1" stroke="none"/>
    <path id="Path-19" d="M220.4 148.7 C219.8 149.1 219.3 149.4 218.6 149.7 219.2 149.3 219.8 149 220.4 148.7 Z" fill="#2b2b2b" fill-opacity="1" stroke="none"/>
    <path id="Path-20" d="M201.5 152.2 C201.1 152.2 200.7 152.1 200.3 152 200.7 152.1 201.1 152.1 201.5 152.2 Z" fill="#2b2b2b" fill-opacity="1" stroke="none"/>
    <path id="Path-21" d="M204.2 152.4 L205.4 152.4 206.6 152.4 C206.2 152.4 205.8 152.4 205.4 152.4 205.1 152.4 204.6 152.4 204.2 152.4 Z" fill="#2b2b2b" fill-opacity="1" stroke="none"/>
    <path id="Path-22" d="M202.6 152.3 C202.2 152.3 201.8 152.2 201.4 152.2 201.9 152.2 202.2 152.3 202.6 152.3 Z" fill="#2b2b2b" fill-opacity="1" stroke="none"/>
    <path id="Path-23" d="M218.6 149.7 C218.3 149.8 218 150 217.7 150.1 218 149.9 218.3 149.8 218.6 149.7 Z" fill="#2b2b2b" fill-opacity="1" stroke="none"/>
    <path id="Path-24" d="M200 152 C199.7 152 199.4 151.9 199.1 151.8 199.4 151.9 199.7 151.9 200 152 Z" fill="#2b2b2b" fill-opacity="1" stroke="none"/>
    <path id="Path-25" d="M196.4 151.2 C196.1 151.1 195.8 151 195.5 150.9 195.8 151 196.1 151.1 196.4 151.2 Z" fill="#2b2b2b" fill-opacity="1" stroke="none"/>
    <path id="Path-26" d="M205.5 130.5 C194.6 130.5 185.7 135.4 185.7 141.5 185.7 144.3 187.5 146.8 190.6 148.7 189.8 148.2 189 147.6 188.4 147 191.8 143.7 198.2 141.5 205.5 141.5 212.8 141.5 219.2 143.7 222.6 147 222 147.6 221.2 148.2 220.4 148.7 223.4 146.8 225.3 144.3 225.3 141.5 225.3 135.4 216.4 130.5 205.5 130.5 Z" fill="#2b2b2b" fill-opacity="1" stroke="none"/>
    <path id="Path-27" d="M205.5 141.4 C198.2 141.4 191.8 143.6 188.4 146.9 189 147.5 189.8 148.1 190.6 148.6 191.2 149 191.7 149.3 192.4 149.6 192.7 149.7 193 149.9 193.3 150 L193.4 150 C194 150.3 194.7 150.5 195.4 150.8 L195.5 150.8 C195.8 150.9 196.1 151 196.4 151.1 196.5 151.1 196.5 151.1 196.6 151.2 197.3 151.4 198 151.6 198.8 151.7 L199.1 151.7 C199.4 151.8 199.7 151.8 200 151.9 L200.3 151.9 C200.7 152 201.1 152 201.5 152.1 201.9 152.1 202.3 152.2 202.7 152.2 L203 152.2 C203.3 152.2 203.6 152.2 203.9 152.3 L204.3 152.3 205.5 152.3 206.7 152.3 207.1 152.3 C207.4 152.3 207.7 152.3 208 152.2 L208.3 152.2 C208.7 152.2 209.1 152.1 209.5 152.1 209.9 152.1 210.3 152 210.7 151.9 L211 151.9 C211.3 151.9 211.6 151.8 211.9 151.7 L212.2 151.7 C213 151.6 213.7 151.4 214.4 151.2 214.5 151.2 214.5 151.2 214.6 151.1 214.9 151 215.2 150.9 215.5 150.8 L215.6 150.8 C216.3 150.6 217 150.3 217.6 150 L217.7 150 C218 149.9 218.3 149.7 218.6 149.6 219.2 149.3 219.8 149 220.4 148.6 221.2 148.1 222 147.5 222.6 146.9 219.2 143.7 212.8 141.4 205.5 141.4 Z" fill="#f15b5a" fill-opacity="1" stroke="none"/>
    <path id="Path-28" d="M231.6 271.2 C227.2 264.4 225.8 256 227.8 248.2 233.7 224.7 237.2 206.8 237.9 195.9 227.6 192.7 216.1 191 203.9 191 191 191 178.8 193 168.1 196.5 168.9 207.5 172.3 225.1 178.1 248.2 180.1 256 178.7 264.4 174.3 271.2 170.5 277 164.8 281.3 158.2 283.3 171.1 289.2 186.8 292.7 203.9 292.7 220.6 292.7 236.1 289.4 248.9 283.6 241.7 281.8 235.5 277.4 231.6 271.2 Z" fill="#8cb0ae" fill-opacity="1" stroke="none"/>
    <path id="Path-29" d="M174.2 271.2 C178.6 264.4 180 256 178 248.2 172.2 225.1 168.8 207.5 168 196.5 167.9 194.4 167.8 192.6 167.8 191 167.8 189.4 166.6 188 164.9 188 L164.8 188 C163.2 188 161.9 189.3 161.9 190.9 L161.9 191 C161.6 204.3 167.4 230.3 172.3 249.7 173 252.4 173.2 255 172.9 257.7 L172.9 257.8 C172.9 258.1 172.8 258.4 172.8 258.6 L172.8 258.9 C172.8 259.2 172.7 259.4 172.7 259.7 172.7 259.8 172.7 260 172.6 260.1 172.6 260.3 172.5 260.6 172.4 260.8 172.4 260.9 172.3 261.1 172.3 261.2 172.2 261.4 172.2 261.6 172.1 261.8 172.1 262 172 262.1 172 262.3 171.9 262.5 171.9 262.7 171.8 262.9 171.7 263.1 171.7 263.2 171.6 263.4 171.5 263.6 171.5 263.8 171.4 263.9 171.3 264.1 171.2 264.3 171.2 264.4 171.1 264.6 171.1 264.7 171 264.9 170.9 265.1 170.8 265.3 170.7 265.5 170.6 265.6 170.6 265.8 170.5 265.9 170.4 266.1 170.3 266.3 170.1 266.6 170 266.7 170 266.8 169.9 267 169.7 267.3 169.5 267.7 169.3 268 165.7 273.5 160.2 277.2 153.8 278.3 141.2 280.5 129 272.1 126.8 259.5 126.7 259.2 126.7 258.8 126.6 258.4 126.6 258.3 126.6 258.1 126.5 258 126.5 257.8 126.4 257.5 126.4 257.3 126.4 257.1 126.3 257 126.3 256.8 126.3 256.6 126.2 256.4 126.2 256.1 126.2 255.9 126.1 255.7 126.1 255.5 126.1 255.3 126 255.1 126 254.9 126 254.7 125.9 254.5 125.9 254.2 125.9 254 125.8 253.8 125.8 253.6 125.8 253.4 125.7 253.1 125.7 252.9 125.7 252.7 125.6 252.5 125.6 252.3 125.6 252 125.5 251.8 125.5 251.5 125.5 251.3 125.5 251.1 125.4 251 125.4 250.7 125.3 250.4 125.3 250.1 125.3 249.9 125.3 249.8 125.2 249.6 125.2 249.3 125.1 249 125.1 248.6 125.1 248.5 125.1 248.3 125.1 248.2 125.1 247.8 125 247.5 125 247.1 125 247 125 247 125 246.9 124.7 244 124.4 240.7 124.1 237.2 124.1 236.6 124 236 124 235.4 L124 235.3 C124 234.7 123.9 234.1 123.9 233.5 L123.9 233.4 C123.9 232.8 123.8 232.2 123.8 231.5 123.8 231.5 123.8 231.5 123.8 231.4 123.4 224.1 123.1 215.7 123.1 206.1 123.1 205.2 123.1 204.3 123.1 203.5 123.1 202.6 123.1 201.7 123.1 200.8 123.1 198.1 123.2 195.4 123.2 192.6 123.2 191.8 123.2 191.3 123.2 191 123.2 189.4 121.9 188.1 120.3 188.1 118.7 188.1 117.4 189.4 117.4 191 L117.4 192.4 C116.8 220 118.1 243.6 121.1 260.5 123.6 274.6 135.9 284.5 149.8 284.5 151.5 284.5 153.2 284.4 154.9 284 156 283.8 157.1 283.5 158.2 283.2 164.7 281.3 170.5 277.1 174.2 271.2 Z" fill="#2b2b2b" fill-opacity="1" stroke="none"/>
    <g id="group-3">
     <path id="Path-30" d="M232.8 255.9 C232.8 255.7 232.8 255.5 232.8 255.2 Z" fill="#f2f2f2" fill-opacity="1" stroke="none"/>
     <path id="Path-31" d="M233.1 251.4 C233.1 251.3 233.1 251.3 233.1 251.2 Z" fill="#f2f2f2" fill-opacity="1" stroke="none"/>
     <path id="Path-32" d="M172.7 251.2 L172.7 251.4 C172.7 251.3 172.7 251.3 172.7 251.2 Z" fill="#f2f2f2" fill-opacity="1" stroke="none"/>
     <path id="Path-33" d="M172.7 251.4 C172.8 251.7 172.8 252 172.8 252.3 172.8 252 172.7 251.7 172.7 251.4 Z" fill="#f2f2f2" fill-opacity="1" stroke="none"/>
     <path id="Path-34" d="M232.9 257.7 C232.8 257.1 232.8 256.5 232.8 255.9 232.8 256.5 232.8 257.1 232.9 257.7 Z" fill="#f2f2f2" fill-opacity="1" stroke="none"/>
     <path id="Path-35" d="M233.1 251.4 C233 251.7 233 252 233 252.3 233 252 233.1 251.7 233.1 251.4 Z" fill="#f2f2f2" fill-opacity="1" stroke="none"/>
     <path id="Path-36" d="M91.1 275.5 L91.9 270.9 Z" fill="#f2f2f2" fill-opacity="1" stroke="none"/>
     <path id="Path-37" d="M233 252.3 C233 252.6 232.9 253 232.9 253.3 232.9 252.9 232.9 252.6 233 252.3 Z" fill="#f2f2f2" fill-opacity="1" stroke="none"/>
     <path id="Path-38" d="M232.9 253.3 C232.9 253.6 232.9 253.8 232.8 254.1 232.8 253.8 232.8 253.5 232.9 253.3 Z" fill="#f2f2f2" fill-opacity="1" stroke="none"/>
     <path id="Path-39" d="M232.8 254.1 L232.8 255.2 C232.8 254.8 232.8 254.4 232.8 254.1 Z" fill="#f2f2f2" fill-opacity="1" stroke="none"/>
     <path id="Path-40" d="M172.8 252.2 C172.8 252.5 172.9 252.9 172.9 253.2 172.9 252.9 172.9 252.6 172.8 252.2 Z" fill="#f2f2f2" fill-opacity="1" stroke="none"/>
     <path id="Path-41" d="M289.5 117.5 C282.6 75 246.3 44.2 203.2 44.2 160.1 44.2 123.9 75 117 117.5 L91.9 270.9 C94.9 285.8 106.8 297.7 122.3 300.2 123.7 300.4 124.8 301.7 124.8 303.1 L124.8 314.9 124.8 338.9 C124.8 353.3 136.5 365.1 151 365.1 165.4 365.1 177.2 353.4 177.2 338.9 L177.2 315.4 177.2 303.6 C177.2 302 178.5 300.7 180.1 300.7 L226.5 300.7 C228.1 300.7 229.4 302 229.4 303.6 L229.4 315.4 229.4 339 C229.4 353.4 241.1 365.2 255.6 365.2 270 365.2 281.8 353.5 281.8 339 L281.8 315 281.8 303.2 C281.8 301.8 282.8 300.5 284.3 300.3 299.9 297.7 311.7 285.9 314.7 271 Z M133.3 95 C134.5 93.9 136.3 93.9 137.5 95.1 L157.9 116.7 171 84.5 C171.4 83.5 172.4 82.7 173.5 82.7 174.6 82.6 175.7 83.2 176.2 84.2 L193.9 116.2 213.3 84.1 C213.9 83.1 215.1 82.5 216.2 82.7 217.4 82.9 218.3 83.7 218.6 84.9 L226.2 113.6 240.1 92.9 C240.7 92 241.8 91.5 243 91.6 244.1 91.8 245 92.6 245.4 93.6 L252.3 115.7 270 92.1 C271 90.8 272.8 90.5 274.1 91.5 275.4 92.5 275.7 94.3 274.7 95.6 L272.2 99 C273.8 103.3 274.7 107.7 274.7 112.3 L274.7 113.5 274.7 114.3 C274.7 144.7 242.9 169.3 203.8 169.3 164.6 169.3 132.9 144.7 132.9 114.3 132.9 114 132.9 113.7 132.9 113.5 132.9 113.1 132.9 112.7 132.9 112.4 132.9 108.4 133.6 104.5 134.8 100.7 L133.3 99.2 C132.1 97.9 132.1 96.1 133.3 95 Z M284.8 260.6 C282.3 274.7 270 284.6 256.1 284.6 254.4 284.6 252.7 284.5 251 284.1 250.3 284 249.5 283.8 248.8 283.6 236 289.3 220.6 292.7 203.8 292.7 186.8 292.7 171 289.2 158.1 283.3 157 283.6 155.9 283.9 154.8 284.1 153.1 284.4 151.4 284.6 149.7 284.6 135.8 284.6 123.5 274.7 121 260.6 118 243.7 116.7 220.1 117.3 192.5 117.3 191.8 117.3 191.3 117.3 191.1 117.3 189.5 118.6 188.2 120.2 188.2 121.8 188.2 123.1 189.5 123.1 191.1 L123.1 192.7 C123 195.5 123 198.3 123 200.9 123.2 225.6 125.1 241.6 126.8 251.1 129 263.7 141.2 272.2 153.8 269.9 160.2 268.8 165.8 265.1 169.3 259.6 171 257 172.1 254.2 172.6 251.3 172.5 250.8 172.4 250.3 172.3 249.8 167.4 230.4 161.6 204.5 161.9 191.1 L161.9 191 C161.9 189.4 163.2 188.1 164.8 188.1 L164.9 188.1 C166.5 188.1 167.8 189.5 167.8 191.1 167.8 192.7 167.8 194.5 168 196.6 178.8 193.1 190.9 191.1 203.8 191.1 216 191.1 227.5 192.9 237.8 196 237.9 194.2 238 192.6 237.9 191.1 237.9 189.5 239.1 188.1 240.8 188.1 242.4 188.1 243.8 189.3 243.8 191 L243.8 191.1 C244.1 204.4 238.3 230.4 233.4 249.8 233.3 250.3 233.2 250.8 233.1 251.3 233.7 254.2 234.8 257 236.4 259.6 240 265.1 245.5 268.8 251.9 269.9 264.5 272.1 276.7 263.7 278.9 251.1 280.6 241.6 282.5 225.6 282.7 200.9 282.7 198.2 282.6 195.5 282.6 192.7 282.6 191.9 282.6 191.4 282.6 191.1 282.6 189.5 283.9 188.2 285.5 188.2 287.1 188.2 288.4 189.5 288.4 191.1 L288.4 192.5 C289.1 220.1 287.8 243.6 284.8 260.6 Z" fill="#f2f2f2" fill-opacity="1" stroke="none"/>
     <path id="Path-42" d="M173 255.9 C173 256.5 173 257.1 172.9 257.7 173 257.1 173 256.5 173 255.9 Z" fill="#f2f2f2" fill-opacity="1" stroke="none"/>
     <path id="Path-43" d="M172.9 253.3 C172.9 253.6 172.9 253.8 173 254.1 173 253.8 173 253.5 172.9 253.3 Z" fill="#f2f2f2" fill-opacity="1" stroke="none"/>
     <path id="Path-44" d="M173 255.2 L173 255.9 C173 255.6 173 255.4 173 255.2 Z" fill="#f2f2f2" fill-opacity="1" stroke="none"/>
     <path id="Path-45" d="M173 254.1 L173 255.2 C173 254.8 173 254.4 173 254.1 Z" fill="#f2f2f2" fill-opacity="1" stroke="none"/>
     <path id="Path-46" d="M124.6 242.4 C124.4 240.8 124.3 239.1 124.2 237.3 124.3 239.1 124.4 240.8 124.6 242.4 Z" fill="#f2f2f2" fill-opacity="1" stroke="none"/>
     <path id="Path-47" d="M125 247 C124.8 245.5 124.7 244 124.5 242.4 124.7 244 124.9 245.6 125 247 Z" fill="#f2f2f2" fill-opacity="1" stroke="none"/>
     <path id="Path-48" d="M123.7 231.6 C123.3 224.3 123 215.9 123 206.3 123 215.9 123.3 224.3 123.7 231.6 Z" fill="#f2f2f2" fill-opacity="1" stroke="none"/>
     <path id="Path-49" d="M282.8 206.2 C282.8 215.9 282.5 224.3 282.1 231.5 282.5 224.3 282.8 215.9 282.8 206.2 Z" fill="#f2f2f2" fill-opacity="1" stroke="none"/>
     <path id="Path-50" d="M281.2 242.7 C281.4 241 281.5 239.2 281.7 237.3 281.5 239.2 281.4 241 281.2 242.7 Z" fill="#f2f2f2" fill-opacity="1" stroke="none"/>
     <path id="Path-51" d="M281.2 242.7 C281.1 244.2 280.9 245.7 280.8 247 280.9 245.7 281.1 244.2 281.2 242.7 Z" fill="#f2f2f2" fill-opacity="1" stroke="none"/>
    </g>
    <path id="Path-52" d="M288.5 192.5 C288.5 191.8 288.5 191.3 288.5 191.1 288.5 189.5 287.2 188.2 285.6 188.2 284 188.2 282.7 189.5 282.7 191.1 L282.7 192.7 C282.8 195.5 282.8 198.3 282.8 200.9 L282.8 203.6 282.8 206.2 C282.8 215.9 282.5 224.3 282.1 231.5 282.1 232.1 282 232.8 282 233.4 L282 233.5 C282 234.1 281.9 234.7 281.9 235.3 L281.9 235.4 C281.9 236 281.8 236.6 281.8 237.2 L281.8 237.3 C281.5 240.9 281.2 244.1 280.9 247 L280.9 247.2 C280.9 247.6 280.8 248 280.8 248.3 L280.8 248.7 C280.8 249 280.7 249.4 280.7 249.7 280.7 249.9 280.7 250 280.6 250.2 280.6 250.5 280.5 250.8 280.5 251.1 280.5 251.3 280.5 251.5 280.4 251.7 280.4 252 280.3 252.2 280.3 252.5 280.3 252.7 280.2 252.9 280.2 253.1 280.2 253.3 280.1 253.6 280.1 253.8 280.1 254 280 254.2 280 254.4 280 254.6 279.9 254.8 279.9 255 279.9 255.2 279.8 255.4 279.8 255.6 279.8 255.8 279.7 256 279.7 256.2 279.7 256.4 279.6 256.6 279.6 256.8 279.6 257 279.5 257.1 279.5 257.3 279.5 257.5 279.4 257.8 279.4 258 279.4 258.1 279.4 258.3 279.3 258.4 279.2 258.8 279.2 259.1 279.1 259.5 276.8 272.1 264.7 280.6 252.1 278.3 245.7 277.2 240.1 273.5 236.6 268 236.4 267.7 236.2 267.3 236 267 235.9 266.9 235.9 266.8 235.8 266.6 235.7 266.4 235.6 266.2 235.4 265.9 235.3 265.8 235.3 265.6 235.2 265.5 235.1 265.3 235 265.1 234.9 264.9 234.8 264.7 234.8 264.6 234.7 264.4 234.6 264.2 234.5 264 234.5 263.9 234.4 263.7 234.4 263.5 234.3 263.4 234.2 263.2 234.2 263.1 234.1 262.9 234 262.7 234 262.5 233.9 262.3 233.9 262.1 233.8 262 233.8 261.8 233.7 261.6 233.7 261.4 233.6 261.2 233.6 261.1 233.5 260.9 233.5 260.8 233.4 260.6 233.4 260.3 233.3 260.1 233.3 260 233.3 259.8 233.2 259.7 233.2 259.4 233.1 259.2 233.1 258.9 233.1 258.8 233.1 258.7 233.1 258.6 233.1 258.3 233 258 233 257.8 L233 257.7 C232.7 255.1 232.9 252.4 233.6 249.7 238.5 230.3 244.3 204.4 244 191 L244 190.9 C244 189.3 242.6 188 241 188 239.4 188 238.1 189.4 238.1 191 238.1 192.4 238.1 194.1 238 195.9 237.3 206.8 233.9 224.7 227.9 248.2 225.9 256 227.3 264.4 231.7 271.2 235.7 277.4 241.9 281.8 248.9 283.6 249.6 283.8 250.4 284 251.1 284.1 252.8 284.4 254.5 284.6 256.2 284.6 270.1 284.6 282.4 274.7 284.9 260.6 287.8 243.6 289.1 220.1 288.5 192.5 Z" fill="#2b2b2b" fill-opacity="1" stroke="none"/>
    <path id="Path-53" d="M123 200.8 L123 203.5 123 206.1 C123 215.8 123.3 224.2 123.7 231.4 L123.7 231.5 C123.7 232.1 123.8 232.8 123.8 233.4 L123.8 233.5 C123.8 234.1 123.9 234.7 123.9 235.3 L123.9 235.4 C123.9 236 124 236.6 124 237.2 124.3 240.8 124.6 244 124.9 246.9 L124.9 247.1 C124.9 247.5 125 247.8 125 248.2 L125 248.6 C125 248.9 125.1 249.3 125.1 249.6 125.1 249.8 125.1 249.9 125.2 250.1 125.2 250.4 125.3 250.7 125.3 251 125.3 251.2 125.3 251.4 125.4 251.5 125.4 251.8 125.5 252 125.5 252.3 125.5 252.5 125.6 252.7 125.6 252.9 125.6 253.1 125.7 253.4 125.7 253.6 125.7 253.8 125.8 254 125.8 254.2 125.8 254.4 125.9 254.6 125.9 254.9 125.9 255.1 126 255.3 126 255.5 126 255.7 126.1 255.9 126.1 256.1 126.1 256.3 126.2 256.5 126.2 256.8 126.2 257 126.3 257.1 126.3 257.3 126.3 257.5 126.4 257.8 126.4 258 126.4 258.1 126.4 258.3 126.5 258.4 126.6 258.8 126.6 259.1 126.7 259.5 128.9 272.1 141.1 280.6 153.7 278.3 160.1 277.2 165.7 273.5 169.2 268 169.4 267.7 169.6 267.3 169.8 267 169.9 266.9 169.9 266.8 170 266.6 170.1 266.4 170.2 266.2 170.4 265.9 170.5 265.8 170.5 265.6 170.6 265.5 170.7 265.3 170.8 265.1 170.9 264.9 171 264.7 171 264.6 171.1 264.4 171.2 264.2 171.3 264 171.3 263.9 171.4 263.7 171.4 263.5 171.5 263.4 171.6 263.2 171.6 263.1 171.7 262.9 171.8 262.7 171.8 262.5 171.9 262.3 171.9 262.1 172 262 172 261.8 172.1 261.6 172.1 261.4 172.2 261.2 172.2 261.1 172.3 260.9 172.3 260.8 172.4 260.6 172.4 260.3 172.5 260.1 172.5 260 172.5 259.8 172.6 259.7 172.6 259.4 172.7 259.2 172.7 258.9 172.7 258.8 172.7 258.7 172.7 258.6 172.7 258.3 172.8 258 172.8 257.8 L172.8 257.7 C173 255.6 172.9 253.4 172.5 251.2 171.9 254.1 170.8 256.9 169.2 259.5 165.6 265 160.1 268.7 153.7 269.8 141.1 272 128.9 263.6 126.7 251 125.1 241.5 123.2 225.5 123 200.8 Z" fill="#cfcfcf" fill-opacity="1" stroke="none"/>
    <path id="Path-54" d="M233 258.6 L233 258.9 C233 259.2 233.1 259.4 233.1 259.7 233.1 259.8 233.1 260 233.2 260.1 233.2 260.3 233.3 260.6 233.4 260.8 233.4 260.9 233.5 261.1 233.5 261.2 233.6 261.4 233.6 261.6 233.7 261.8 233.7 262 233.8 262.1 233.8 262.3 233.9 262.5 233.9 262.7 234 262.9 234.1 263.1 234.1 263.2 234.2 263.4 234.3 263.6 234.3 263.8 234.4 263.9 234.5 264.1 234.6 264.3 234.6 264.4 234.7 264.6 234.7 264.7 234.8 264.9 L235.1 265.5 C235.2 265.6 235.2 265.8 235.3 265.9 235.4 266.1 235.5 266.3 235.7 266.6 235.8 266.7 235.8 266.8 235.9 267 236.1 267.3 236.3 267.7 236.5 268 240.1 273.5 245.6 277.2 252 278.3 264.6 280.5 276.8 272.1 279 259.5 279.1 259.2 279.1 258.8 279.2 258.4 279.2 258.3 279.2 258.1 279.3 258 279.3 257.8 279.4 257.5 279.4 257.3 279.4 257.1 279.5 257 279.5 256.8 279.5 256.6 279.6 256.4 279.6 256.2 279.6 256 279.7 255.8 279.7 255.6 279.7 255.4 279.8 255.2 279.8 255 279.8 254.8 279.9 254.6 279.9 254.4 279.9 254.2 280 254 280 253.8 280 253.6 280.1 253.3 280.1 253.1 280.1 252.9 280.2 252.7 280.2 252.5 280.2 252.2 280.3 252 280.3 251.7 280.3 251.5 280.3 251.3 280.4 251.1 280.4 250.8 280.5 250.5 280.5 250.2 280.5 250 280.5 249.9 280.6 249.7 280.6 249.4 280.7 249 280.7 248.7 280.7 248.6 280.7 248.4 280.7 248.3 280.7 247.9 280.8 247.5 280.8 247.2 280.8 247.2 280.8 247.1 280.8 247 281.1 244.1 281.4 240.8 281.7 237.3 281.7 237.3 281.7 237.3 281.7 237.2 281.7 236.6 281.8 236 281.8 235.4 L281.8 235.3 C281.8 234.7 281.9 234.1 281.9 233.5 L281.9 233.4 C281.9 232.8 282 232.1 282 231.5 282.4 224.2 282.7 215.8 282.7 206.2 282.7 205.3 282.7 204.4 282.7 203.6 282.7 202.7 282.7 201.8 282.7 200.9 282.5 225.6 280.6 241.6 278.9 251.1 276.6 263.7 264.5 272.2 251.9 269.9 245.5 268.8 239.9 265.1 236.4 259.6 234.7 257 233.6 254.2 233.1 251.3 232.7 253.5 232.6 255.6 232.8 257.8 L232.8 257.9 C232.9 258.1 232.9 258.4 233 258.6 Z" fill="#cfcfcf" fill-opacity="1" stroke="none"/>
    <path id="Path-55" d="M122.3 300.2 C106.7 297.6 94.9 285.8 91.9 270.9 L91.2 275.4 C91.3 293.6 104.4 309 122.4 311.9 123.8 312.1 124.9 313.4 124.9 314.8 L124.9 303 C124.8 301.7 123.7 300.5 122.3 300.2 Z" fill="#cfcfcf" fill-opacity="1" stroke="none"/>
    <path id="Path-56" d="M150.9 365.1 C136.5 365.1 124.7 353.4 124.7 338.9 L124.7 350.7 C124.7 365.1 136.4 376.9 150.9 376.9 165.3 376.9 177.1 365.2 177.1 350.7 L177.1 339 C177.1 353.4 165.4 365.1 150.9 365.1 Z" fill="#cfcfcf" fill-opacity="1" stroke="none"/>
    <path id="Path-57" d="M314.6 270.9 C311.6 285.8 299.7 297.7 284.2 300.2 282.8 300.4 281.7 301.7 281.7 303.1 L281.7 314.9 C281.7 313.5 282.7 312.2 284.2 312 302.2 309.1 315.3 293.7 315.4 275.5 Z" fill="#cfcfcf" fill-opacity="1" stroke="none"/>
    <path id="Path-58" d="M226.5 300.7 L180 300.7 C178.4 300.7 177.1 302 177.1 303.6 L177.1 315.4 C177.1 313.8 178.4 312.5 180 312.5 L226.4 312.5 C228 312.5 229.3 313.8 229.3 315.4 L229.3 303.6 C229.4 302.1 228.1 300.7 226.5 300.7 Z" fill="#cfcfcf" fill-opacity="1" stroke="none"/>
    <path id="Path-59" d="M255.6 365.1 C241.2 365.1 229.4 353.4 229.4 338.9 L229.4 350.7 C229.4 365.1 241.1 376.9 255.6 376.9 270 376.9 281.8 365.2 281.8 350.7 L281.8 339 C281.7 353.4 270 365.1 255.6 365.1 Z" fill="#cfcfcf" fill-opacity="1" stroke="none"/>
   </g>
  </g>
 </g>
</svg>
