<svg xmlns="http://www.w3.org/2000/svg" xmlns:xlink="http://www.w3.org/1999/xlink" version="1.1" x="0px" y="0px" viewBox="0 0 128 130" style="enable-background:new 0 0 128 128;" xml:space="preserve"><g><g><path d="M64,126C29.813,126,2,98.187,2,64S29.813,2,64,2s62,27.813,62,62S98.187,126,64,126z M64,5C31.467,5,5,31.467,5,64    s26.467,59,59,59s59-26.467,59-59S96.533,5,64,5z"/><g><g><path d="M54.009,82.337c-0.391,0-0.772-0.153-1.058-0.436l-7.93-7.879c-0.394-0.391-0.539-0.968-0.378-1.499      c1.92-6.33,4.408-12.646,7.398-18.773c2.987-6.148,6.707-13.804,11.728-19.144c0.002-0.002,0.003-0.004,0.005-0.005      c11.267-11.865,29.338-12.384,39.107-11.638c0.742,0.057,1.33,0.649,1.382,1.391c0.683,9.765,0.076,27.806-11.656,38.911      c-5.274,5.007-13.042,8.698-19.284,11.664c-6.159,2.967-12.516,5.44-18.885,7.346C54.297,82.316,54.152,82.337,54.009,82.337z       M47.779,72.533l6.651,6.609c5.933-1.824,11.849-4.15,17.598-6.92c6.372-3.027,13.586-6.455,18.515-11.135      c10.348-9.793,11.305-25.757,10.808-35.221c-9.466-0.554-25.459,0.332-35.398,10.799c-4.706,5.008-8.314,12.433-11.213,18.399      C51.954,60.771,49.614,66.643,47.779,72.533z"/><path d="M77.854,56.712c-1.932,0-3.862-0.73-5.332-2.19c-1.427-1.417-2.213-3.304-2.213-5.311s0.786-3.893,2.214-5.311      c2.938-2.921,7.722-2.919,10.662,0c1.427,1.418,2.213,3.304,2.213,5.311s-0.786,3.893-2.213,5.311      C81.716,55.982,79.785,56.712,77.854,56.712z M77.854,44.707c-1.165,0-2.33,0.441-3.217,1.322      c-0.857,0.851-1.328,1.981-1.328,3.183s0.471,2.332,1.327,3.182c1.775,1.763,4.66,1.763,6.434,0      c0.856-0.851,1.328-1.981,1.328-3.183s-0.472-2.332-1.328-3.183C80.184,45.147,79.019,44.707,77.854,44.707z"/><path d="M48.942,65.129c-0.04,0-0.081-0.001-0.121-0.005l-13.229-1.055c-0.455-0.036-0.868-0.277-1.124-0.655      c-0.255-0.378-0.324-0.852-0.188-1.287c0.443-1.42,4.926-14.109,25.461-22.381c0.571-0.229,1.229-0.087,1.653,0.364      c0.424,0.45,0.527,1.114,0.262,1.672c-0.182,0.381-0.504,0.652-0.877,0.78c-15.475,6.255-21.103,14.899-22.911,18.679      l11.191,0.893c0.826,0.066,1.442,0.789,1.376,1.614C50.373,64.533,49.717,65.129,48.942,65.129z"/><path d="M64.53,92.708c-0.297,0-0.59-0.088-0.841-0.258c-0.377-0.255-0.617-0.667-0.654-1.121l-1.062-13.14      c-0.066-0.826,0.549-1.549,1.374-1.616c0.818-0.068,1.55,0.548,1.616,1.375l0.898,11.115      c3.792-1.787,12.496-7.365,18.799-22.715c0.113-0.38,0.377-0.715,0.762-0.907c0.557-0.279,1.238-0.187,1.696,0.238      c0.459,0.425,0.612,1.085,0.376,1.664C79.171,87.743,66.401,92.2,64.973,92.641C64.828,92.686,64.679,92.708,64.53,92.708z"/><path d="M100.632,48.421c-0.382,0-0.765-0.145-1.058-0.436l-20.47-20.337c-0.587-0.584-0.591-1.534-0.007-2.121      c0.585-0.587,1.533-0.592,2.122-0.007l20.47,20.337c0.587,0.584,0.591,1.534,0.007,2.121      C101.402,48.273,101.018,48.421,100.632,48.421z"/></g><g><path d="M25.835,104.464c-0.375,0-0.751-0.14-1.042-0.421c-0.596-0.576-0.612-1.525-0.037-2.121L42.84,83.199      c0.576-0.595,1.525-0.612,2.121-0.037c0.596,0.576,0.612,1.525,0.037,2.121l-18.084,18.723      C26.619,104.311,26.228,104.464,25.835,104.464z"/><path d="M38.56,105.254c-0.354,0-0.71-0.125-0.995-0.378c-0.619-0.55-0.676-1.499-0.125-2.118L49.16,89.566      c0.549-0.619,1.498-0.676,2.117-0.125s0.676,1.499,0.125,2.118L39.682,104.75C39.386,105.084,38.974,105.254,38.56,105.254z"/><path d="M25.039,92.611c-0.354,0-0.71-0.125-0.995-0.379c-0.619-0.55-0.676-1.498-0.125-2.117L35.64,76.923      c0.549-0.619,1.498-0.677,2.117-0.125c0.619,0.55,0.676,1.498,0.125,2.117L26.161,92.107      C25.865,92.441,25.453,92.611,25.039,92.611z"/></g></g></g></g></svg>
