<?xml version="1.0" encoding="utf-8"?>
<!-- Generator: Adobe Illustrator 23.0.3, SVG Export Plug-In . SVG Version: 6.00 Build 0)  -->
<svg version="1.1" id="Icons" xmlns="http://www.w3.org/2000/svg" xmlns:xlink="http://www.w3.org/1999/xlink" x="0px" y="0px"
	 viewBox="0 0 32 32" style="enable-background:new 0 0 32 32;" xml:space="preserve">
<style type="text/css">
	.st0{fill:none;stroke:#000000;stroke-width:2;stroke-linecap:round;stroke-linejoin:round;stroke-miterlimit:10;}
	.st1{fill:none;stroke:#000000;stroke-width:2;stroke-linejoin:round;stroke-miterlimit:10;}
</style>
<path class="st0" d="M26,26H6c-1.1,0-2-0.9-2-2V6c0-1.1,0.9-2,2-2h20c1.1,0,2,0.9,2,2v18C28,25.1,27.1,26,26,26z"/>
<rect x="8" y="8" class="st0" width="16" height="14"/>
<line class="st0" x1="23" y1="12" x2="25" y2="12"/>
<line class="st0" x1="23" y1="18" x2="25" y2="18"/>
<circle class="st0" cx="14" cy="15" r="3"/>
<polygon class="st0" points="10,29 7,29 7,26 12,26 "/>
<polygon class="st0" points="25,29 22,29 20,26 25,26 "/>
</svg>
