<?xml version="1.0" encoding="utf-8"?>
<!-- Svg Vector Icons : http://www.onlinewebfonts.com/icon -->
<!DOCTYPE svg PUBLIC "-//W3C//DTD SVG 1.1//EN" "http://www.w3.org/Graphics/SVG/1.1/DTD/svg11.dtd">
<svg version="1.1" xmlns="http://www.w3.org/2000/svg" xmlns:xlink="http://www.w3.org/1999/xlink" x="0px" y="0px" viewBox="0 0 1000 1000" enable-background="new 0 0 1000 1000" xml:space="preserve">
<metadata> Svg Vector Icons : http://www.onlinewebfonts.com/icon </metadata>
<g><path d="M158.1,126.6l566.4,263.1l55.4,167.5L817,341.9L158.1,126.6z"/><path d="M42.8,79.3l799.1,228.2L990,183.2L10,65.8l477.5,639.8l204.2-285.5L42.8,79.3z"/><path d="M708.7,441.5L657,507.7l114.8,76.7L708.7,441.5z"/><path d="M720.9,934.2l-7.5-13.9c37.4-20.1,96.4-56.7,121.7-98.9c-18.7,15.9-44.2,31.4-70.7,30.7c-21-0.4-39.4-11-54.4-31.2c-26.8-36-11.4-83.3,19.2-108.7c26.2-21.6,70.3-31.8,108.2,10.2c13.2,14.5,21.4,29.8,24.4,45.7c22.2-33.3,31.7-71,26.8-108c-5.3-41.2-28-77.8-63.9-103l9.1-13c39.6,27.9,64.6,68.3,70.6,113.9c6.1,47.5-8.9,95.7-42.1,136c-0.1,0.4-0.2,0.8-0.2,1.4C852,852.8,779.7,902.6,720.9,934.2z M778.7,709.4c-14.9,0-28.7,6.2-39.3,15.1c-25,20.5-38,58.7-16.8,86.9c12.2,16.2,26.4,24.6,42.3,25.1c0.6,0,1.1,0,1.5,0c34.6,0,68.7-35.2,80.8-49.3c1.7-18.8-5.4-36.6-21.4-54.4C810.3,715.9,793.9,709.4,778.7,709.4z"/></g>
</svg>